<?xml version="1.0" encoding="UTF-8" standalone="no"?>
<!DOCTYPE svg PUBLIC "-//W3C//DTD SVG 1.1//EN" "http://www.w3.org/Graphics/SVG/1.1/DTD/svg11.dtd">
<svg width="100%" height="100%" viewBox="0 0 1200 600" version="1.1" xmlns="http://www.w3.org/2000/svg" xmlns:xlink="http://www.w3.org/1999/xlink" xml:space="preserve" xmlns:serif="http://www.serif.com/" style="fill-rule:evenodd;clip-rule:evenodd;stroke-linejoin:round;stroke-miterlimit:2;">
    <rect id="Artboard1" x="0" y="0" width="1200" height="600" style="fill:none;"/>
    <g id="Artboard11" serif:id="Artboard1">
        <g id="discord" transform="matrix(6.76056,0,0,6.76056,240,300)">
            <g transform="matrix(1,0,0,1,-35.5,-27.5)">
                <clipPath id="_clip1">
                    <rect x="0" y="0" width="71" height="55"/>
                </clipPath>
                <g clip-path="url(#_clip1)">
                    <g>
                        <path d="M60.105,4.898C55.579,2.821 50.727,1.292 45.653,0.415C45.56,0.399 45.468,0.441 45.42,0.525C44.796,1.635 44.105,3.083 43.621,4.222C38.164,3.405 32.734,3.405 27.389,4.222C26.905,3.058 26.189,1.635 25.562,0.525C25.514,0.444 25.422,0.401 25.329,0.415C20.258,1.289 15.406,2.819 10.878,4.898C10.838,4.915 10.805,4.943 10.783,4.98C1.578,18.731 -0.944,32.144 0.293,45.391C0.299,45.456 0.335,45.518 0.386,45.558C6.459,50.017 12.341,52.725 18.115,54.52C18.207,54.548 18.305,54.514 18.364,54.438C19.73,52.573 20.947,50.606 21.991,48.538C22.052,48.417 21.994,48.274 21.868,48.226C19.937,47.493 18.098,46.6 16.329,45.586C16.189,45.504 16.178,45.304 16.307,45.208C16.679,44.929 17.051,44.639 17.407,44.346C17.471,44.293 17.561,44.281 17.636,44.315C29.256,49.62 41.835,49.62 53.318,44.315C53.394,44.279 53.483,44.29 53.55,44.343C53.906,44.636 54.278,44.929 54.653,45.208C54.782,45.304 54.773,45.504 54.633,45.586C52.865,46.62 51.026,47.493 49.092,48.223C48.966,48.271 48.91,48.417 48.972,48.538C50.038,50.603 51.255,52.57 52.596,54.435C52.652,54.514 52.753,54.548 52.845,54.52C58.646,52.725 64.529,50.017 70.602,45.558C70.655,45.518 70.689,45.459 70.694,45.394C72.175,30.079 68.215,16.776 60.197,4.982C60.177,4.943 60.144,4.915 60.105,4.898ZM23.726,37.325C20.228,37.325 17.345,34.114 17.345,30.169C17.345,26.225 20.172,23.013 23.726,23.013C27.308,23.013 30.163,26.253 30.107,30.169C30.107,34.114 27.28,37.325 23.726,37.325ZM47.318,37.325C43.82,37.325 40.937,34.114 40.937,30.169C40.937,26.225 43.764,23.013 47.318,23.013C50.9,23.013 53.755,26.253 53.699,30.169C53.699,34.114 50.9,37.325 47.318,37.325Z" style="fill:white;fill-rule:nonzero;"/>
                    </g>
                </g>
            </g>
        </g>
        <g id="steam" transform="matrix(3.01341,0,0,3.01341,-848.046,-604.023)">
            <g transform="matrix(3,0,0,3,599.862,380.509)">
                <path d="M0,-53.673C-13.97,-53.673 -25.415,-42.803 -26.502,-28.989L-12.249,-23.042C-11.041,-23.875 -9.582,-24.363 -8.012,-24.363C-7.871,-24.363 -7.731,-24.359 -7.592,-24.351L-1.253,-33.622C-1.253,-33.666 -1.254,-33.709 -1.254,-33.753C-1.254,-39.334 3.245,-43.874 8.775,-43.874C14.306,-43.874 18.805,-39.334 18.805,-33.753C18.805,-28.173 14.306,-23.632 8.775,-23.632C8.699,-23.632 8.623,-23.634 8.548,-23.636L-0.493,-17.126C-0.488,-17.007 -0.484,-16.887 -0.484,-16.767C-0.484,-12.577 -3.861,-9.17 -8.012,-9.17C-11.656,-9.17 -14.703,-11.795 -15.393,-15.27L-25.587,-19.523C-22.43,-8.258 -12.175,0 0,0C14.688,0 26.594,-12.016 26.594,-26.836C26.594,-41.658 14.688,-53.673 0,-53.673" style="fill:white;fill-rule:nonzero;"/>
            </g>
            <g transform="matrix(3,0,0,3,570.352,320.556)">
                <path d="M0,7.032L-3.267,5.67C-2.688,6.886 -1.686,7.904 -0.356,8.464C2.518,9.673 5.833,8.296 7.031,5.394C7.611,3.989 7.615,2.439 7.04,1.031C6.465,-0.377 5.382,-1.475 3.989,-2.061C2.607,-2.641 1.126,-2.62 -0.175,-2.124L3.2,-0.716C5.32,0.176 6.323,2.633 5.439,4.772C4.556,6.912 2.12,7.924 0,7.032" style="fill:white;fill-rule:nonzero;"/>
            </g>
            <g transform="matrix(3,0,0,3,646.237,279.247)">
                <path d="M0,0.001C0,-3.718 -2.998,-6.743 -6.683,-6.743C-10.367,-6.743 -13.366,-3.718 -13.366,0.001C-13.366,3.719 -10.367,6.744 -6.683,6.744C-2.998,6.744 0,3.719 0,0.001M-11.692,-0.011C-11.692,-2.809 -9.444,-5.076 -6.672,-5.076C-3.899,-5.076 -1.651,-2.809 -1.651,-0.011C-1.651,2.787 -3.899,5.055 -6.672,5.055C-9.444,5.055 -11.692,2.787 -11.692,-0.011" style="fill:white;fill-rule:nonzero;"/>
            </g>
        </g>
        <g transform="matrix(11.5415,0,0,11.5415,462.163,161.771)">
            <path d="M19.818,8.972C18.333,7.487 15.929,7.769 13.878,7.699C14.02,7.84 14.303,7.982 14.515,8.194C14.868,8.547 15.151,8.971 15.363,9.466C16.495,9.466 17.697,9.396 18.545,10.244C18.969,10.669 19.252,11.376 19.323,12.012C19.323,13.426 18.192,14.558 16.777,14.558L13.1,14.558C12.535,14.558 11.757,14.204 11.333,13.78C10.343,12.79 10.484,11.659 10.908,10.527L9.07,10.527C8.575,12.153 8.646,13.78 9.918,15.053C10.767,15.901 11.898,16.325 12.959,16.255L16.636,16.255C17.909,16.255 19.111,15.901 20.03,14.982C21.444,13.285 21.374,10.527 19.818,8.972L19.818,8.972ZM8.221,14.487L6.948,14.487C6.383,14.487 5.605,14.133 5.18,13.709C4.756,13.285 4.473,12.578 4.403,11.941C4.403,10.527 5.605,9.325 6.948,9.396L10.625,9.396C11.191,9.396 11.969,9.749 12.393,10.174C13.383,11.163 13.171,12.366 12.817,13.426L14.656,13.426C15.151,11.8 15.08,10.174 13.807,8.901C12.959,8.052 11.827,7.628 10.767,7.699L7.09,7.699C4.685,7.699 2.776,9.608 2.847,11.941C2.847,14.204 4.756,16.255 7.019,16.113L9.706,16.113C9.423,15.972 9.211,15.76 8.999,15.547C8.645,15.194 8.362,14.911 8.221,14.487L8.221,14.487Z" style="fill:white;fill-rule:nonzero;"/>
        </g>
    </g>
</svg>
