<?xml version="1.0" encoding="UTF-8" standalone="no"?><!DOCTYPE svg PUBLIC "-//W3C//DTD SVG 1.1//EN" "http://www.w3.org/Graphics/SVG/1.1/DTD/svg11.dtd"><svg width="100%" height="100%" viewBox="0 0 128 128" version="1.1" xmlns="http://www.w3.org/2000/svg" xmlns:xlink="http://www.w3.org/1999/xlink" xml:space="preserve" xmlns:serif="http://www.serif.com/" style="fill-rule:evenodd;clip-rule:evenodd;stroke-linejoin:round;stroke-miterlimit:2;"><rect id="Artboard1" x="0" y="0" width="128" height="128" style="fill:none;"/><g id="Artboard11" serif:id="Artboard1"><path d="M63.994,1.58c-35.34,-0 -63.994,28.653 -63.994,64.002c0,28.276 18.336,52.262 43.768,60.729c3.202,0.585 4.369,-1.391 4.369,-3.088c0,-1.517 -0.055,-5.544 -0.086,-10.883c-17.802,3.866 -21.558,-8.581 -21.558,-8.581c-2.912,-7.394 -7.108,-9.363 -7.108,-9.363c-5.811,-3.968 0.44,-3.889 0.44,-3.889c6.424,0.451 9.803,6.596 9.803,6.596c5.709,9.779 14.981,6.954 18.627,5.316c0.581,-4.133 2.232,-6.954 4.062,-8.553c-14.21,-1.615 -29.152,-7.108 -29.152,-31.632c-0,-6.985 2.495,-12.698 6.589,-17.173c-0.66,-1.619 -2.857,-8.125 0.624,-16.938c0,0 5.375,-1.72 17.602,6.562c5.104,-1.423 10.58,-2.13 16.022,-2.153c5.434,0.023 10.911,0.73 16.022,2.153c12.219,-8.282 17.582,-6.562 17.582,-6.562c3.493,8.813 1.296,15.319 0.636,16.938c4.102,4.475 6.581,10.188 6.581,17.173c0,24.587 -14.965,29.997 -29.223,31.581c2.299,1.976 4.345,5.881 4.345,11.853c0,8.554 -0.078,15.457 -0.078,17.555c-0,1.713 1.151,3.705 4.4,3.08c25.412,-8.483 43.733,-32.453 43.733,-60.721c-0,-35.349 -28.657,-64.002 -64.006,-64.002" style="fill:#fff;"/></g></svg>