<?xml version="1.0" encoding="UTF-8" standalone="no"?><!DOCTYPE svg PUBLIC "-//W3C//DTD SVG 1.1//EN" "http://www.w3.org/Graphics/SVG/1.1/DTD/svg11.dtd"><svg width="100%" height="100%" viewBox="0 0 2134 2134" version="1.1" xmlns="http://www.w3.org/2000/svg" xmlns:xlink="http://www.w3.org/1999/xlink" xml:space="preserve" xmlns:serif="http://www.serif.com/" style="fill-rule:evenodd;clip-rule:evenodd;stroke-linecap:round;stroke-linejoin:round;stroke-miterlimit:1.5;"><rect id="Artboard1" x="0" y="0" width="2133.33" height="2133.33" style="fill:none;"/><g id="Artboard11" serif:id="Artboard1"><circle id="circle" cx="1066.67" cy="1066.67" r="1041.67" style="fill:#0e1216;stroke:#5d7486;stroke-width:41.67px;"/><g id="pliers"><path d="M1081.24,1108.39c-1.443,118.435 11.709,228.884 58.451,320.713c36.561,71.824 92.898,142.56 163.037,154.347c20.217,3.397 48.391,-10.574 78.6,-33.69l120.682,-65.533l16.854,-9.147c128.58,-21.03 202.219,-63.287 239.793,-117.268c-5.676,-4.111 -17.076,-8.508 -40.768,-17.123c10.03,-11.988 23.38,-23.476 41.297,-30.431c20.954,-8.133 35.674,-22.342 41.455,-33.075c-12.781,-14.278 -38.478,-22.098 -73.11,-25.45c69.504,-44.861 108.26,-86.398 106.427,-123.547l-61.038,-0.607c-2.441,-1.028 -1.936,-8.626 5.639,-15.195c23.303,-20.208 60.902,-67.767 59.792,-92.496c-33.09,16.216 -61.323,18.67 -82.845,2.109c5.614,-13.624 13.594,-37.482 34.182,-61.51c22.898,-26.725 37.937,-57.168 36.914,-81.886c-23.261,-2.328 -47.675,2.267 -73.506,15.364c33.419,-55.376 48.381,-102.964 40.669,-140.987c-18.609,0.916 -36.975,6.307 -52.309,22.334c-20.495,21.421 -48.776,22.594 -60.661,11.105c33.581,-35.8 44.913,-114.036 27.716,-177.438c-14.477,9.53 -29.513,22.185 -43.533,39.273c-18.918,23.056 -36.568,32.07 -47.846,29.753c14.749,-59.827 10.618,-117.585 -21.549,-172.271l-45.305,64.134c-1.926,-64.087 -9.757,-120.271 -33.081,-155.716c-16.717,9.689 -33.77,29.464 -45.667,60.844c-6.695,-25.781 -15.227,-58.19 -16.876,-90.433c-1.594,-31.165 -14.145,-45.701 -28.398,-37.537l-0.852,45.541c-6.558,-4.116 -18.16,-22.539 -22.295,-55.898c-4.33,-34.931 -23.612,-50.427 -44.911,-46.581l1.774,95.129l198.1,639.36l-42.52,271.209l-434.312,-187.396Zm-29.14,0c1.442,118.435 -11.709,228.884 -58.452,320.713c-36.561,71.824 -92.898,142.56 -163.037,154.347c-20.217,3.397 -48.391,-10.574 -78.599,-33.69l-120.683,-65.533l-16.853,-9.147c-128.581,-21.03 -202.22,-63.287 -239.793,-117.268c5.676,-4.111 17.075,-8.508 40.767,-17.123c-10.03,-11.988 -23.379,-23.476 -41.297,-30.431c-20.953,-8.133 -35.674,-22.342 -41.455,-33.075c12.781,-14.278 38.478,-22.098 73.11,-25.45c-69.503,-44.861 -108.26,-86.398 -106.426,-123.547l61.038,-0.607c2.441,-1.028 1.935,-8.626 -5.639,-15.195c-23.303,-20.208 -60.902,-67.767 -59.792,-92.496c33.09,16.216 61.322,18.67 82.844,2.109c-5.614,-13.624 -13.594,-37.482 -34.182,-61.51c-22.898,-26.725 -37.937,-57.168 -36.914,-81.886c23.261,-2.328 47.675,2.267 73.506,15.364c-33.419,-55.376 -48.381,-102.964 -40.669,-140.987c18.609,0.916 36.976,6.307 52.309,22.334c20.495,21.421 48.777,22.594 60.661,11.105c-33.58,-35.8 -44.913,-114.036 -27.715,-177.438c14.477,9.53 29.512,22.185 43.533,39.273c18.917,23.056 36.568,32.07 47.845,29.753c-14.748,-59.827 -10.618,-117.585 21.549,-172.271l45.306,64.134c1.926,-64.087 9.756,-120.271 33.081,-155.716c16.717,9.689 33.77,29.464 45.666,60.844c6.695,-25.781 15.228,-58.19 16.876,-90.433c1.594,-31.165 14.145,-45.701 28.399,-37.537l0.852,45.541c6.557,-4.116 18.159,-22.539 22.294,-55.898c4.33,-34.931 23.612,-50.427 44.911,-46.581l-1.773,95.129l-198.101,639.36l42.52,271.209l434.313,-187.396Z" style="fill:#1f2c34;"/><path d="M1371.1,1082.81c1.065,111.938 23.201,176.908 58.457,173.743c17.493,-1.571 28.831,-12.216 39.585,-24.63c9.434,-10.89 15.793,-24.137 23.166,-37.683c7.048,-12.949 11.715,-27.417 16.691,-42.532c5.432,-16.496 10.787,-34.327 11.004,-53.642c0.601,-53.584 -8.101,-118.462 -27.27,-189.861c-23.92,-89.094 -57.087,-188.786 -94.933,-291.876c-39.045,-106.355 -88.125,-216.292 -119.17,-324.289c49.692,19.168 88.763,69.015 115.318,155.021c3.379,-9.744 9.036,-16.071 17.153,-18.707c3.953,-1.284 8.814,1.752 10.343,10.034c4.508,24.432 9.387,74.321 22.192,107.636c5.532,-22.897 11.825,-33.628 19.703,-34.524c16.308,-1.855 15.741,90.373 30.004,151.651c11.563,-9.411 26.887,-29.665 45.442,-59.231c16.448,47.983 6.763,109.639 5.529,166.874c17.345,-20.221 36.478,-37.378 58.322,-49.887c8.818,51.665 -1.908,114.225 -32.294,187.741c40.118,-41.633 75.512,-73.543 93.75,-70.132c6.508,9.145 -9.877,63.229 -38.078,140.505c35.589,-28.923 69.169,-50.212 98.329,-54.707c2.152,27.983 -10.611,53.531 -35.142,79.597c-20.945,22.255 -27.335,50.052 -28.242,58.256c26.168,-12.71 50.15,-18.235 71.819,-16.164c0.785,10.659 -4.931,25.246 -27.895,52.745c-14.295,17.118 -22.075,34.008 -27.535,45.843c23.534,-4.353 44.849,-5.973 64.106,-5.061c-2.967,21.554 -19.811,48.301 -52.451,68.863c-18.743,11.807 -39.152,26.201 -60.338,42.842c25.139,9.557 60.651,23.101 67.481,27.354c-34.263,17.316 -75.554,30.241 -122.671,39.524c31.18,10.138 64.097,17.497 99.293,21.208c-8.197,15.935 -21.681,26.808 -39.818,33.587c-20.074,7.504 -45.868,10.445 -76.46,8.779c-74.519,-4.058 -119.408,9.136 -106.873,11.292c43.101,15.868 70.915,27.096 69.023,29.306c4.136,8.483 -25.958,16.966 -68.445,25.45l-204.356,-270.649l18.506,-43.618c23.19,-56.665 61.452,-64.96 106.755,-50.658Zm-608.865,0c-1.065,111.938 -23.201,176.908 -58.456,173.743c-17.493,-1.571 -28.831,-12.216 -39.586,-24.63c-9.434,-10.89 -15.792,-24.137 -23.166,-37.683c-7.048,-12.949 -11.714,-27.417 -16.691,-42.532c-5.431,-16.496 -10.787,-34.327 -11.003,-53.642c-0.602,-53.584 8.101,-118.462 27.27,-189.861c23.919,-89.094 57.086,-188.786 94.932,-291.876c39.045,-106.355 88.125,-216.292 119.17,-324.289c-49.691,19.168 -88.763,69.015 -115.318,155.021c-3.379,-9.744 -9.035,-16.071 -17.153,-18.707c-3.953,-1.284 -8.814,1.752 -10.342,10.034c-4.509,24.432 -9.387,74.321 -22.193,107.636c-5.532,-22.897 -11.824,-33.628 -19.702,-34.524c-16.309,-1.855 -15.742,90.373 -30.005,151.651c-11.563,-9.411 -26.887,-29.665 -45.442,-59.231c-16.447,47.983 -6.763,109.639 -5.528,166.874c-17.346,-20.221 -36.479,-37.378 -58.323,-49.887c-8.818,51.665 1.909,114.225 32.294,187.741c-40.117,-41.633 -75.512,-73.543 -93.75,-70.132c-6.508,9.145 9.878,63.229 38.079,140.505c-35.589,-28.923 -69.169,-50.212 -98.33,-54.707c-2.151,27.983 10.611,53.531 35.143,79.597c20.945,22.255 27.335,50.052 28.241,58.256c-26.168,-12.71 -50.15,-18.235 -71.819,-16.164c-0.785,10.659 4.931,25.246 27.895,52.745c14.295,17.118 22.075,34.008 27.536,45.843c-23.535,-4.353 -44.85,-5.973 -64.107,-5.061c2.968,21.554 19.812,48.301 52.452,68.863c18.743,11.807 39.151,26.201 60.337,42.842c-25.139,9.557 -60.651,23.101 -67.48,27.354c34.263,17.316 75.554,30.241 122.67,39.524c-31.18,10.138 -64.096,17.497 -99.293,21.208c8.197,15.935 21.681,26.808 39.819,33.587c20.073,7.504 45.867,10.445 76.459,8.779c74.52,-4.058 119.408,9.136 106.873,11.292c-43.101,15.868 -70.915,27.096 -69.023,29.306c-4.135,8.483 25.959,16.966 68.445,25.45l204.357,-270.649l-18.507,-43.618c-23.19,-56.665 -61.452,-64.96 -106.755,-50.658Z" style="fill:#5d7486;"/><path d="M1061.31,1097.32c-162.727,138.444 -347.694,314.57 -359.047,621.417c-1.656,44.76 -43.686,81.02 -67.203,125.088c-7.167,-1.097 -33.223,0.761 -35.41,-25.471c-4.933,-59.176 -16.77,-113.082 29.102,-331.335c6.305,-30 19.357,-62.163 39.285,-93.295c7.055,-11.023 15.001,-21.982 23.592,-33.118c22.626,-29.326 49.381,-60.137 76.841,-96.011c98.213,-128.31 186.593,-238.494 199.495,-288.508l-40.876,-96.004c11.777,-84.879 5.884,-219.248 4.742,-315.134c-0.197,-16.458 16.56,-26.816 29.045,-35.141c14.239,39.445 28.033,76.79 40.127,111.231c16.049,45.707 29.101,86.298 36.22,119.895c7.966,37.601 -0.26,67.316 -17.049,84.673c9.607,14.636 23.776,24.307 46.495,24.675l0.531,-0.011c22.408,-0.508 36.432,-10.142 45.963,-24.664c-16.789,-17.357 -25.015,-47.072 -17.048,-84.673c7.118,-33.597 20.171,-74.188 36.22,-119.895c12.093,-34.441 25.887,-71.786 40.127,-111.231c12.485,8.325 29.241,18.683 29.045,35.141c-1.143,95.886 -7.036,230.255 4.741,315.134l-40.876,96.004c12.903,50.014 101.282,160.198 199.496,288.508c27.459,35.874 54.214,66.685 76.84,96.011c8.591,11.136 16.537,22.095 23.593,33.118c19.928,31.132 32.979,63.295 39.285,93.295c45.872,218.253 34.034,272.159 29.101,331.335c-2.186,26.232 -28.243,24.374 -35.41,25.471c-23.517,-44.068 -65.547,-80.328 -67.203,-125.088c-11.353,-306.847 -196.319,-482.973 -359.046,-621.417l-5.359,5.701l-5.359,-5.701Z" style="fill:#8c9da7;"/><path d="M1072.03,1097.29c40.276,49.63 72.609,84.725 104.659,128.065c21.549,29.138 44.747,59.865 73.039,99.74c18.454,26.009 36.24,57.054 58.117,92.755c15.963,26.05 30.809,56.437 49.538,89.408c11.98,21.089 25.499,43.459 35.816,69.398c12.947,32.552 21.436,63.236 22.091,95.905c0.35,17.435 3.963,33.869 4.59,49.953c0.505,12.978 1.901,24.911 2.266,35.962c0.342,10.353 2.611,19.629 3.9,28.097c1.861,12.225 6.996,21.927 11.116,30.168c12.004,24.006 36.876,29.09 61.117,26.459c-7.477,-24.593 -12.088,-58.209 -21.768,-98.636c-4.661,-19.466 -8.531,-40.455 -9.845,-63.004c-3.228,-55.423 -5.525,-116.624 -26.552,-178.531c-7.324,-21.563 -14.542,-44.781 -28.137,-65.893c-22.718,-35.282 -33.923,-59.718 -72.749,-111.234c-23.151,-30.719 -56.123,-71.066 -107.213,-129.083c-18.67,-21.201 -39.854,-45.049 -62.621,-74.331c-17.362,-22.33 -35.901,-47.589 -55.791,-76.487l-41.573,51.289Zm-10.718,0c-40.277,49.63 -72.61,84.725 -104.66,128.065c-21.548,29.138 -44.746,59.865 -73.039,99.74c-18.453,26.009 -36.24,57.054 -58.117,92.755c-15.962,26.05 -30.809,56.437 -49.538,89.408c-11.98,21.089 -25.499,43.459 -35.816,69.398c-12.947,32.552 -21.436,63.236 -22.091,95.905c-0.349,17.435 -3.963,33.869 -4.589,49.953c-0.505,12.978 -1.902,24.911 -2.267,35.962c-0.342,10.353 -2.61,19.629 -3.9,28.097c-1.861,12.225 -6.995,21.927 -11.116,30.168c-12.003,24.006 -36.876,29.09 -61.117,26.459c7.477,-24.593 12.088,-58.209 21.768,-98.636c4.661,-19.466 8.532,-40.455 9.845,-63.004c3.228,-55.423 5.525,-116.624 26.552,-178.531c7.325,-21.563 14.543,-44.781 28.137,-65.893c22.719,-35.282 33.923,-59.718 72.749,-111.234c23.151,-30.719 56.123,-71.066 107.214,-129.083c18.67,-21.201 39.853,-45.049 62.62,-74.331c17.362,-22.33 35.901,-47.589 55.791,-76.487l41.574,51.289Z" style="fill:#5d7486;"/></g></g></svg>