<?xml version="1.0" encoding="UTF-8" standalone="no"?><!DOCTYPE svg PUBLIC "-//W3C//DTD SVG 1.1//EN" "http://www.w3.org/Graphics/SVG/1.1/DTD/svg11.dtd"><svg width="100%" height="100%" viewBox="0 0 2134 2134" version="1.1" xmlns="http://www.w3.org/2000/svg" xmlns:xlink="http://www.w3.org/1999/xlink" xml:space="preserve" xmlns:serif="http://www.serif.com/" style="fill-rule:evenodd;clip-rule:evenodd;stroke-linejoin:round;stroke-miterlimit:2;"><rect id="Artboard1" x="0" y="0" width="2133.33" height="2133.33" style="fill:#192d40;"/><g id="Artboard11" serif:id="Artboard1"><path d="M1065.04,127.52c-493.294,0 -897.457,380.409 -935.875,863.824l503.348,208.119c42.634,-29.198 94.137,-46.234 149.591,-46.234c4.962,0 9.923,0.132 14.841,0.395l223.837,-324.428c-0,-1.537 -0.044,-3.073 -0.044,-4.61c0,-195.254 158.899,-354.153 354.197,-354.153c195.298,0 354.153,158.899 354.153,354.153c-0,195.298 -158.855,354.197 -354.153,354.197c-2.722,-0 -5.357,-0.044 -8.035,-0.132l-319.247,227.789c0.176,4.171 0.307,8.386 0.307,12.601c0,146.606 -119.251,265.857 -265.856,265.857c-128.647,-0 -236.263,-91.854 -260.631,-213.476l-359.993,-148.844c111.48,394.196 473.624,683.235 903.56,683.235c518.672,0 939.125,-420.496 939.125,-939.168c-0,-518.672 -420.453,-939.125 -939.125,-939.125" style="fill:#fff;fill-rule:nonzero;"/><path d="M717.677,1552.51l-115.343,-47.639c20.46,42.546 55.805,78.154 102.786,97.781c101.469,42.282 218.524,-5.884 260.851,-107.484c20.46,-49.176 20.592,-103.401 0.307,-152.665c-20.285,-49.263 -58.572,-87.682 -107.748,-108.186c-48.78,-20.329 -101.073,-19.539 -147.044,-2.24l119.207,49.264c74.862,31.218 110.251,117.231 79.077,192.093c-31.174,74.861 -117.232,110.294 -192.093,79.076" style="fill:#fff;fill-rule:nonzero;"/><path d="M1610.92,824.599c-0,-130.14 -105.86,-235.999 -236,-235.999c-130.096,-0 -235.999,105.859 -235.999,235.999c-0,130.14 105.903,235.956 235.999,235.956c130.14,-0 236,-105.816 236,-235.956m-412.9,-0.395c-0,-97.912 79.383,-177.296 177.296,-177.296c97.912,-0 177.296,79.384 177.296,177.296c-0,97.912 -79.384,177.252 -177.296,177.252c-97.913,0 -177.296,-79.34 -177.296,-177.252" style="fill:#fff;fill-rule:nonzero;"/></g></svg>